<?xml version="1.0" encoding="UTF-8" standalone="no"?>
<svg
   xmlns:dc="http://purl.org/dc/elements/1.1/"
   xmlns:cc="http://creativecommons.org/ns#"
   xmlns:rdf="http://www.w3.org/1999/02/22-rdf-syntax-ns#"
   xmlns:svg="http://www.w3.org/2000/svg"
   xmlns="http://www.w3.org/2000/svg"
   xmlns:sodipodi="http://sodipodi.sourceforge.net/DTD/sodipodi-0.dtd"
   xmlns:inkscape="http://www.inkscape.org/namespaces/inkscape"
   height="32"
   id="Layer_1"
   version="1.1"
   viewBox="0 0 32 32"
   width="32"
   xml:space="preserve"
   inkscape:version="0.91 r13725"
   sodipodi:docname="house_icon.svg"><metadata
     id="metadata9"><rdf:RDF><cc:Work
         rdf:about=""><dc:format>image/svg+xml</dc:format><dc:type
           rdf:resource="http://purl.org/dc/dcmitype/StillImage" /><dc:title></dc:title></cc:Work></rdf:RDF></metadata><defs
     id="defs7"><clipPath
       clipPathUnits="userSpaceOnUse"
       id="clipPath3365"><path
         d="m 750.29065,210.00002 -70.41563,-43.47 0,-106.530014 c 0,-16.500002 -21.85313,-30.000003 -48.5625,-30.000003 l -48.5625,0 c -26.70938,0 -48.5625,13.500001 -48.5625,30.000003 l 0,16.590002 -97.12501,-59.940006 C 423.80495,8.9100009 411.66432,0 388.50001,0 365.3357,0 353.19507,8.9100009 339.93751,16.650002 L 26.709376,210.00002 C 11.557875,219.75002 0,226.86002 0,240.00002 c 0,16.89001 20.979001,30.00001 48.562501,30.00001 l 48.562502,0 0,180.00002 c 0,16.5 21.853127,30 48.562497,30 l 145.68751,0 0,-150.00002 c 0,-16.5 21.85312,-30 48.5625,-30 l 97.125,0 c 26.70938,0 48.5625,13.5 48.5625,30 l 0,150.00002 145.68751,0 c 26.70937,0 48.5625,-13.5 48.5625,-30 l 0,-180.00002 48.5625,0 c 27.5835,0 48.5625,-13.11 48.5625,-30.00001 0,-13.14 -11.55787,-20.25 -26.70937,-30 z"
         id="path3367"
         inkscape:connector-curvature="0" /></clipPath></defs><sodipodi:namedview
     pagecolor="#ffffff"
     bordercolor="#666666"
     borderopacity="1"
     objecttolerance="10"
     gridtolerance="10"
     guidetolerance="10"
     inkscape:pageopacity="0"
     inkscape:pageshadow="2"
     inkscape:window-width="1855"
     inkscape:window-height="1056"
     id="namedview5"
     showgrid="false"
     inkscape:zoom="20.85965"
     inkscape:cx="21.348622"
     inkscape:cy="15.558358"
     inkscape:window-x="65"
     inkscape:window-y="24"
     inkscape:window-maximized="1"
     inkscape:current-layer="Layer_1" /><g
     id="g3357"
     transform="matrix(0.04118404,0,0,0.06666666,0,6.8000006e-7)"
     clip-path="url(#clipPath3365)"><rect
       id="rect3339"
       height="480"
       width="777"
       x="0"
       y="0"
       style="fill:#750787" /><rect
       id="rect3341"
       height="400"
       width="777"
       x="0"
       y="0"
       style="fill:#004dff" /><rect
       id="rect3343"
       height="320"
       width="777"
       x="0"
       y="0"
       style="fill:#008026" /><rect
       id="rect3345"
       height="240"
       width="777"
       x="0"
       y="0"
       style="fill:#ffed00" /><rect
       id="rect3347"
       height="160"
       width="777"
       x="0"
       y="0"
       style="fill:#ff8c00" /><rect
       id="rect3349"
       height="80"
       width="777"
       x="0"
       y="0"
       style="fill:#e40303" /></g></svg>