<?xml version="1.0" encoding="UTF-8" standalone="no"?>
<svg
   xmlns:dc="http://purl.org/dc/elements/1.1/"
   xmlns:cc="http://creativecommons.org/ns#"
   xmlns:rdf="http://www.w3.org/1999/02/22-rdf-syntax-ns#"
   xmlns:svg="http://www.w3.org/2000/svg"
   xmlns="http://www.w3.org/2000/svg"
   xml:space="preserve"
   width="16px"
   viewBox="0 0 16 16"
   version="1.1"
   style="enable-background:new 0 0 16 16;"
   id="Layer_1"
   height="16px"><metadata
     id="metadata9"><rdf:RDF><cc:Work
         rdf:about=""><dc:format>image/svg+xml</dc:format><dc:type
           rdf:resource="http://purl.org/dc/dcmitype/StillImage" /><dc:title></dc:title></cc:Work></rdf:RDF></metadata><defs
     id="defs7"><clipPath
       id="clipPath3365"
       clipPathUnits="userSpaceOnUse"><path
         id="path3367"
         d="m 750.29065,210.00002 -70.41563,-43.47 0,-106.530014 c 0,-16.500002 -21.85313,-30.000003 -48.5625,-30.000003 l -48.5625,0 c -26.70938,0 -48.5625,13.500001 -48.5625,30.000003 l 0,16.590002 -97.12501,-59.940006 C 423.80495,8.9100009 411.66432,0 388.50001,0 365.3357,0 353.19507,8.9100009 339.93751,16.650002 L 26.709376,210.00002 C 11.557875,219.75002 0,226.86002 0,240.00002 c 0,16.89001 20.979001,30.00001 48.562501,30.00001 l 48.562502,0 0,180.00002 c 0,16.5 21.853127,30 48.562497,30 l 145.68751,0 0,-150.00002 c 0,-16.5 21.85312,-30 48.5625,-30 l 97.125,0 c 26.70938,0 48.5625,13.5 48.5625,30 l 0,150.00002 145.68751,0 c 26.70937,0 48.5625,-13.5 48.5625,-30 l 0,-180.00002 48.5625,0 c 27.5835,0 48.5625,-13.11 48.5625,-30.00001 0,-13.14 -11.55787,-20.25 -26.70937,-30 z" /></clipPath></defs><g
     clip-path="url(#clipPath3365)"
     transform="scale(0.02059202,0.03333333)"
     id="g3357"><rect
       style="fill:#750787"
       y="0"
       x="0"
       width="777"
       height="480"
       id="rect3339" /><rect
       style="fill:#004dff"
       y="0"
       x="0"
       width="777"
       height="400"
       id="rect3341" /><rect
       style="fill:#008026"
       y="0"
       x="0"
       width="777"
       height="320"
       id="rect3343" /><rect
       style="fill:#ffed00"
       y="0"
       x="0"
       width="777"
       height="240"
       id="rect3345" /><rect
       style="fill:#ff8c00"
       y="0"
       x="0"
       width="777"
       height="160"
       id="rect3347" /><rect
       style="fill:#e40303"
       y="0"
       x="0"
       width="777"
       height="80"
       id="rect3349" /></g><text
     id="text3369"
     y="7.8742642"
     x="5.7676392"
     style="font-style:normal;font-variant:normal;font-weight:bold;font-stretch:normal;font-size:6.25px;line-height:125%;font-family:serif;-inkscape-font-specification:'serif Bold';letter-spacing:0px;word-spacing:0px;fill:#ffffff;fill-opacity:1;stroke:none;stroke-width:1px;stroke-linecap:butt;stroke-linejoin:miter;stroke-opacity:1"
     xml:space="preserve"><tspan
       y="7.8742642"
       x="5.7676392"
       id="tspan3371">Y</tspan></text>
</svg>